<svg xmlns="http://www.w3.org/2000/svg" width="50" height="50" fill="white" viewBox="0 0 33.867 33.867"><defs><linearGradient id="a"><stop offset="0" stop-color="#f6f600"/><stop offset="1" stop-color="#f69134"/></linearGradient></defs><path d="M 67.623047 4 C 54.903909 4 48.984375 11.765227 48.984375 22.638672 L 48.984375 48.900391 L 39.984375 48.900391 C 36.660375 48.900391 33.984375 51.576391 33.984375 54.900391 L 33.984375 67.539062 C 33.984375 70.863062 36.660375 73.539062 39.984375 73.539062 L 48.984375 73.539062 L 48.984375 118.0625 C 48.984375 121.3865 51.660375 124.0625 54.984375 124.0625 L 67.623047 124.0625 C 70.947047 124.0625 73.623047 121.3865 73.623047 118.0625 L 73.623047 73.539062 L 85.171875 73.539062 C 88.495875 73.539062 90.465107 70.787056 91.171875 67.539062 L 93.921875 54.900391 C 94.628639 51.652397 91.245875 48.900391 87.921875 48.900391 L 73.623047 48.900391 L 73.623047 40.75 C 73.623047 31.766937 75.646223 28.638672 84.390625 28.638672 L 86.953125 28.638672 C 90.277125 28.638672 92.953125 25.962672 92.953125 22.638672 L 92.953125 10 C 92.953125 6.676 90.277125 4 86.953125 4 L 67.623047 4 z " paint-order="fill markers stroke" transform="scale(.26458)"/></svg>