<svg xmlns="http://www.w3.org/2000/svg" width="50" height="50" fill="white" viewBox="0 0 33.867 33.867"><defs><linearGradient id="a"><stop offset="0" stop-color="#f6f600"/><stop offset="1" stop-color="#f69134"/></linearGradient></defs><path d="M 64 4 C 47.310751 4 29.875 16.728719 29.875 33.417969 L 29.875 49.244141 L 21.986328 44.720703 C 19.244254 43.148469 15.893834 43.338486 14 45.869141 C 12.106163 48.399799 12.868673 51.66809 15.150391 53.855469 L 29.875 67.972656 L 29.875 70.544922 C 29.875 82.023611 20.360297 93.228732 7.21875 96.75 C 3.4561827 97.663671 2.3951313 102.84986 7.21875 105 C 10.897979 106.86341 17.419271 108.23925 22.335938 108.02734 L 24.3125 112.71094 C 25.38746 115.46788 26.450041 115.59946 30.091797 115.25781 C 45.782236 111.05357 43.069066 124 64 124 C 84.930933 124 82.217759 111.05357 97.908203 115.25781 C 101.54996 115.59946 102.61254 115.46788 103.6875 112.71094 L 105.66406 108.02734 C 110.58073 108.23925 117.10202 106.86341 120.78125 105 C 125.60487 102.84986 124.54382 97.663671 120.78125 96.75 C 107.6397 93.228731 98.125 82.023612 98.125 70.544922 L 98.125 67.972656 L 112.84961 53.855469 C 115.13133 51.66809 115.89384 48.399799 114 45.869141 C 112.10617 43.338486 108.75575 43.148469 106.01367 44.720703 L 98.125 49.244141 L 98.125 33.417969 C 98.125 16.728719 80.689249 4 64 4 z " paint-order="fill markers stroke" transform="scale(.26458)"/></svg>