<svg xmlns="http://www.w3.org/2000/svg" width="50" height="50" fill="white" viewBox="0 0 33.867 33.867"><defs><linearGradient id="a"><stop offset="0" stop-color="#f6f600"/><stop offset="1" stop-color="#f69134"/></linearGradient></defs><path d="m 23.666772,3.0127391 c -3.975629,0.00421 -7.19646,3.2285783 -7.19646,7.2042109 2.09e-4,0.50326 0.05333,1.004841 0.15813,1.497067 C 15.589361,11.698824 12.8158,11.497513 9.2955564,9.8727853 4.843741,7.8181034 3.8586791,5.8487416 3.8586791,5.8487416 c 0,0 -1.3889655,-1.9331069 -2.0546549,2.1404376 C 1.4426404,10.200562 2.8686141,12.308772 3.876766,13.486518 2.7696684,13.180076 2.302185,12.839529 2.302185,12.839529 c 0,0 -2.11738892,-1.087688 -0.8536946,2.841687 0.8138003,2.530464 3.779119,3.77923 5.0296671,4.204911 -0.9559158,0.02597 -1.4190348,-0.119889 -1.4190348,-0.119889 0,0 -2.256002,-0.349556 0.082682,2.843754 1.3806757,1.885217 4.098364,2.244127 5.5185263,2.298051 -3.9682609,2.909198 -4.8885679,2.243292 -6.5282837,2.103748 -1.0502593,-0.08938 -1.920287,1.050182 0.1426268,2.241206 4.5073022,2.602291 15.2084599,2.708212 21.2012899,-4.868436 5.071838,-6.412246 5.534446,-12.197259 5.507157,-14.019299 0.668528,-0.3693566 1.267031,-0.8312058 1.542542,-1.3921635 0.812318,-1.6539265 -0.311092,-1.457792 -0.311092,-1.457792 l -1.272273,0.073897 c 0.74504,-0.5659254 1.441694,-1.2592631 1.630908,-2.003495 0.454025,-1.7858327 -0.605647,-1.3621906 -0.605647,-1.3621906 l -3.221512,0.876949 C 27.396823,3.7630805 25.573745,3.0126256 23.674007,3.0127391 Z" paint-order="fill markers stroke"/></svg>